<?xml version="1.0" encoding="utf-8"?>
<!-- Generator: Adobe Illustrator 21.1.0, SVG Export Plug-In . SVG Version: 6.00 Build 0)  -->
<svg version="1.1" id="Layer_1" xmlns="http://www.w3.org/2000/svg" xmlns:xlink="http://www.w3.org/1999/xlink" x="0px" y="0px"
	 viewBox="0 0 32 32" style="enable-background:new 0 0 32 32;" xml:space="preserve">
<style type="text/css">
	.st0{fill:#1A1A1A;}
</style>
<title>Artboard 1</title>
<g id="Layer_2_copy">
	<path class="st0" d="M31.4,27.9c0.1,0.3-0.1,0.5-0.4,0.6c0,0,0,0,0,0L4.7,32C4.4,32,4,31.8,4,31.4c0,0,0,0,0,0L1.8,14.5l27.4-3.7
		L31.4,27.9z"/>
</g>
<g id="Layer_2">
	<path d="M29.4,9l0.3,2.2c0,0.1,0,0.1-0.1,0.1c0,0,0,0,0,0L1.3,15.1c-0.1,0-0.1,0-0.1-0.1c0,0,0,0,0,0l-0.5-4c0-0.1,0-0.1,0.1-0.1
		c0,0,0,0,0,0l1-0.1c0,0,0.1,0,0.1,0L26.8,0C26.9,0,27,0,27.1,0.1c0,0,0,0,0,0l0.8,1.9c0.1,0.1,0,0.3-0.1,0.3c0,0,0,0,0,0L4,12.3
		c0,0,0,0,0,0l25.3-3.4C29.4,8.9,29.4,8.9,29.4,9C29.4,9,29.4,9,29.4,9z"/>
</g>
</svg>
