<?xml version="1.0" encoding="utf-8"?>
<!-- Generator: Adobe Illustrator 21.1.0, SVG Export Plug-In . SVG Version: 6.00 Build 0)  -->
<svg version="1.1" id="Layer_1" xmlns="http://www.w3.org/2000/svg" xmlns:xlink="http://www.w3.org/1999/xlink" x="0px" y="0px"
	 viewBox="0 0 64 64" style="enable-background:new 0 0 64 64;" xml:space="preserve">
<path d="M32,4.1C16.6,4.1,4.1,16.6,4.1,32S16.6,59.9,32,59.9S59.9,47.4,59.9,32S47.4,4.1,32,4.1z M32,57.6c-7.9,0-14.9-3.6-19.6-9.2
	c2.4-1,8.3-3.2,12.1-4.3c0.3-0.1,0.3-0.1,0.3-1.4c0-1.4-0.2-2.4-0.5-3.2c-0.5-1-1-2.7-1.2-4.2c-0.6-0.7-1.3-1.9-1.8-4.4
	c-0.4-2.2-0.2-3,0.1-3.7c0-0.1,0.1-0.2,0.1-0.2c0.1-0.5,0-3.2-0.4-5.2c-0.3-1.4,0.1-4.4,2-6.9c1.2-1.6,3.6-3.5,7.8-3.8h2.3
	c4.3,0.3,6.6,2.2,7.9,3.8c1.9,2.5,2.3,5.5,2,6.9c-0.4,2.1-0.5,4.7-0.4,5.2c0,0.1,0.1,0.2,0.1,0.2c0.3,0.7,0.5,1.5,0.1,3.7
	c-0.5,2.5-1.3,3.8-1.8,4.4c-0.2,1.5-0.8,3.2-1.2,4.2c-0.4,0.9-0.9,2-0.9,3.1c0,1.3,0.1,1.3,0.4,1.4c3.6,1.1,9.8,3.2,12.5,4.3
	C46.9,54,39.9,57.6,32,57.6z"/>
</svg>
