<?xml version="1.0" encoding="utf-8"?>
<!-- Generator: Adobe Illustrator 21.1.0, SVG Export Plug-In . SVG Version: 6.00 Build 0)  -->
<svg version="1.1" xmlns="http://www.w3.org/2000/svg" xmlns:xlink="http://www.w3.org/1999/xlink" x="0px" y="0px"
	 viewBox="0 0 64 64" style="enable-background:new 0 0 64 64;" xml:space="preserve">
<g id="Layer_1">
	<path d="M60.8,29.8c0-4.5,0-9,0-13.5c0-1.6-0.5-2.9-1.6-4c-1.1-1-2.4-1.4-3.8-1.4c-7.6,0-15.3,0-22.9,0c-7.5,0-15,0-22.5,0
		c-0.5,0-1,0-1.5,0c-2.2,0.2-4.1,1.8-4.4,4c-0.1,0.7-0.2,1.5-0.2,2.2c0,10.1,0,20.3,0,30.4c0,0.6,0.1,1.3,0.1,1.9
		c0.4,2.6,2.2,4.3,4.8,4.5c0.4,0,0.8,0,1.2,0c14.9,0,29.8,0,44.7,0c0.4,0,0.9,0,1.3,0c2-0.2,3.5-1.1,4.3-3c0.3-0.8,0.5-1.8,0.5-2.8
		C60.8,42.1,60.8,35.9,60.8,29.8z M53.7,46.1c-5.3,0-38.4-0.2-43-0.2c-0.2,0-0.3-0.3-0.2-0.5c1.2-1.9,5.3-8.7,7.3-12
		c1.7-2.8,3.4-5.5,5-8.3c0.6-1.1,1.3-1.1,2-0.9c0.4,0.1,0.7,0.6,1,0.9c2.5,3.3,8.1,10.6,8.5,11.1c0.3-0.3,3.3-3.7,4.6-5.1
		c0.8-0.9,1.4-0.8,2.2,0c0.6,0.6,11.1,12.8,12.7,14.5C54.1,45.7,54,46.1,53.7,46.1z"/>
</g>
<g id="Layer_1_copy">
</g>
</svg>
